<?xml version="1.0" standalone="no"?>
<!DOCTYPE svg PUBLIC "-//W3C//DTD SVG 20010904//EN"
 "http://www.w3.org/TR/2001/REC-SVG-20010904/DTD/svg10.dtd">
<svg version="1.0" xmlns="http://www.w3.org/2000/svg"
 width="200.000000pt" height="200.000000pt" viewBox="0 0 200.000000 200.000000"
 preserveAspectRatio="xMidYMid meet">
<metadata>
Created by potrace 1.11, written by Peter Selinger 2001-2013
</metadata>
<g transform="translate(0.000000,200.000000) scale(0.100000,-0.100000)"
fill="#000000" stroke="none">
<path d="M924 1971 c-50 -23 -93 -76 -101 -124 -5 -34 -9 -37 -81 -62 -129
-46 -247 -136 -273 -209 -8 -21 -29 -43 -66 -66 -120 -76 -197 -186 -192 -274
2 -30 -2 -51 -13 -63 -34 -39 -47 -79 -43 -139 2 -52 85 -345 156 -559 11 -33
23 -71 25 -85 3 -13 10 -30 16 -37 6 -7 7 -13 3 -13 -4 0 -2 -7 5 -15 9 -10 9
-15 1 -15 -6 0 -11 -12 -11 -26 0 -14 4 -23 9 -19 5 3 13 0 17 -6 5 -8 3 -9
-6 -4 -8 5 -11 3 -8 -6 3 -8 10 -13 16 -12 6 2 9 -4 6 -12 -4 -8 -1 -15 6 -15
6 0 8 -5 4 -12 -4 -6 -3 -8 4 -4 15 9 44 -24 39 -44 -2 -9 1 -17 8 -17 7 0 10
10 7 25 -3 17 -1 23 7 18 6 -4 8 -13 5 -19 -4 -7 -4 -9 1 -5 4 4 24 0 44 -9
20 -8 50 -17 66 -18 21 -1 30 -7 29 -19 -2 -21 1 -20 25 5 14 15 21 17 26 8 5
-8 4 -10 -3 -5 -7 4 -12 3 -12 -2 0 -15 37 -21 50 -8 9 8 11 7 8 -4 -2 -8 -9
-20 -17 -26 -11 -9 -12 -12 -1 -19 9 -6 11 -4 5 5 -6 10 -4 12 8 7 9 -3 16 -3
16 1 -5 30 21 35 74 13 37 -14 37 -15 32 10 -3 12 -1 18 3 15 4 -4 7 -13 7
-19 0 -6 13 -13 29 -14 16 -1 35 -4 43 -7 7 -3 13 -1 13 5 0 6 5 7 11 4 6 -4
44 -7 85 -6 53 1 74 -2 74 -11 0 -8 5 -6 10 4 8 13 17 15 39 8 34 -9 49 -2 45
23 -1 11 1 16 4 12 4 -4 7 -11 7 -16 0 -5 4 -9 9 -8 5 0 13 -5 17 -13 7 -10 9
-10 9 0 0 8 5 10 12 6 8 -5 9 -2 5 10 -5 12 -3 15 6 9 6 -4 19 -8 27 -8 8 0
21 -4 27 -8 9 -6 11 -3 6 9 -5 14 -3 15 17 4 18 -10 21 -9 15 1 -6 9 -3 11 8
6 10 -4 17 -1 17 6 0 8 4 6 10 -3 6 -10 10 -11 10 -2 0 6 11 12 24 12 13 0 27
6 29 13 4 9 6 8 6 -2 1 -10 4 -11 14 -2 8 6 22 12 33 14 11 1 38 13 62 25 48
25 56 27 46 10 -4 -7 -3 -8 5 -4 9 6 9 11 -1 24 -12 14 -10 14 11 3 13 -7 21
-9 18 -3 -9 14 18 46 31 38 16 -10 15 -29 0 -20 -7 4 -9 3 -5 -1 4 -5 13 -10
21 -11 17 -2 17 24 -1 30 -17 7 -17 36 0 32 6 -1 9 -1 5 1 -5 3 -8 14 -8 24 0
11 -4 17 -10 14 -7 -4 -7 2 0 19 5 14 6 25 2 23 -8 -2 -12 6 -12 24 0 8 6 7
17 -2 15 -13 15 -12 5 8 -10 18 -3 50 42 195 116 369 130 422 131 494 0 39 -6
60 -29 95 -23 34 -29 54 -27 86 1 25 -6 60 -18 88 -25 57 -113 150 -179 190
-33 20 -53 40 -61 62 -27 74 -164 174 -298 218 -36 11 -53 22 -53 33 0 9 -9
36 -19 59 -39 84 -151 124 -237 84z m607 -1788 c13 -16 12 -17 -3 -4 -17 13
-22 21 -14 21 2 0 10 -8 17 -17z m-181 -63 c0 -5 -2 -10 -4 -10 -3 0 -8 5 -11
10 -3 6 -1 10 4 10 6 0 11 -4 11 -10z"/>
<path d="M307 366 c-4 -10 -1 -13 8 -9 8 3 12 9 9 14 -7 12 -11 11 -17 -5z"/>
<path d="M1696 354 c-3 -7 2 -10 15 -7 22 6 26 20 4 20 -8 0 -16 -6 -19 -13z"/>
<path d="M280 316 c0 -8 4 -17 9 -20 5 -4 7 3 4 14 -6 23 -13 26 -13 6z"/>
<path d="M1754 305 c1 -8 6 -18 11 -22 4 -5 5 -2 0 6 -6 11 -4 13 8 8 23 -9
21 0 -2 13 -15 7 -19 7 -17 -5z"/>
<path d="M320 300 c-9 -6 -10 -10 -3 -10 6 0 15 5 18 10 8 12 4 12 -15 0z"/>
<path d="M230 286 c0 -2 7 -7 16 -10 8 -3 12 -2 9 4 -6 10 -25 14 -25 6z"/>
<path d="M251 252 c-1 -7 -6 -10 -13 -6 -7 4 -8 3 -4 -5 4 -6 11 -9 16 -6 4 3
10 0 12 -7 3 -7 7 -5 11 6 4 9 3 15 -2 11 -5 -3 -12 1 -14 7 -4 10 -6 10 -6 0z"/>
<path d="M316 233 c-6 -14 -5 -15 5 -6 7 7 10 15 7 18 -3 3 -9 -2 -12 -12z"/>
<path d="M1740 226 c0 -2 9 -6 20 -9 11 -3 18 -1 14 4 -5 9 -34 13 -34 5z"/>
<path d="M290 206 c0 -8 4 -17 9 -20 5 -4 7 3 4 14 -6 23 -13 26 -13 6z"/>
<path d="M353 207 c0 -8 6 -14 13 -14 7 0 10 6 7 14 -3 7 -8 13 -12 13 -4 0
-8 -6 -8 -13z"/>
<path d="M330 170 c-9 -6 -10 -10 -3 -10 6 0 15 5 18 10 8 12 4 12 -15 0z"/>
<path d="M1636 153 c-6 -14 -5 -15 5 -6 7 7 10 15 7 18 -3 3 -9 -2 -12 -12z"/>
<path d="M390 145 c0 -5 5 -17 10 -25 5 -8 10 -10 10 -5 0 6 -5 17 -10 25 -5
8 -10 11 -10 5z"/>
<path d="M500 120 c8 -5 20 -10 25 -10 6 0 3 5 -5 10 -8 5 -19 10 -25 10 -5 0
-3 -5 5 -10z"/>
<path d="M1510 116 c0 -2 9 -6 20 -9 11 -3 18 -1 14 4 -5 9 -34 13 -34 5z"/>
<path d="M430 99 c0 -5 5 -7 10 -4 6 3 10 8 10 11 0 2 -4 4 -10 4 -5 0 -10 -5
-10 -11z"/>
<path d="M565 100 c-3 -5 -1 -18 5 -27 9 -15 10 -14 4 6 -4 17 -3 21 6 16 9
-5 11 -4 6 3 -9 15 -13 15 -21 2z"/>
<path d="M1475 100 c6 -10 4 -12 -8 -7 -21 8 -22 3 -3 -12 10 -9 15 -8 19 3 4
9 1 18 -5 22 -7 5 -8 2 -3 -6z"/>
<path d="M1402 83 c6 -7 14 -13 18 -13 3 0 7 6 7 13 0 7 -8 13 -18 13 -13 0
-15 -3 -7 -13z"/>
<path d="M616 75 c-9 -26 -7 -32 5 -12 6 10 9 21 6 23 -2 3 -7 -2 -11 -11z"/>
<path d="M734 48 c3 -14 56 -20 56 -6 0 4 -11 6 -24 4 -14 -2 -27 0 -30 5 -2
5 -3 4 -2 -3z"/>
<path d="M928 53 c-22 -5 -24 -20 -3 -20 8 0 16 6 19 14 3 7 4 12 3 12 -1 -1
-10 -3 -19 -6z"/>
<path d="M1045 40 c-10 -11 -14 -20 -9 -20 5 0 15 9 22 20 7 11 11 20 9 20 -2
0 -12 -9 -22 -20z"/>
<path d="M1196 47 c3 -10 9 -15 12 -12 3 3 0 11 -7 18 -10 9 -11 8 -5 -6z"/>
<path d="M1325 50 c-16 -7 -17 -9 -3 -9 9 -1 20 4 23 9 7 11 7 11 -20 0z"/>
<path d="M1119 48 c-8 -27 -5 -36 9 -30 10 4 12 7 4 10 -7 2 -10 8 -6 13 3 5
3 9 0 9 -3 0 -6 -1 -7 -2z"/>
<path d="M1162 37 c-8 -10 -6 -13 7 -13 11 0 17 6 14 13 -3 7 -6 13 -8 13 -1
0 -7 -6 -13 -13z"/>
<path d="M830 30 c0 -5 5 -10 11 -10 5 0 7 5 4 10 -3 6 -8 10 -11 10 -2 0 -4
-4 -4 -10z"/>
<path d="M955 20 c3 -5 8 -10 11 -10 2 0 4 5 4 10 0 6 -5 10 -11 10 -5 0 -7
-4 -4 -10z"/>
</g>
</svg>
